<?xml version="1.0" encoding="UTF-8"?>
<svg width="17px" height="18px" viewBox="0 0 17 18" version="1.1" xmlns="http://www.w3.org/2000/svg" xmlns:xlink="http://www.w3.org/1999/xlink">
    <!-- Generator: sketchtool 57.1 (101010) - https://sketch.com -->
    <title>6228A06B-2AD4-497E-B628-84605142CDC5</title>
    <desc>Created with sketchtool.</desc>
    <g id="Page-1" stroke="none" stroke-width="1" fill="none" fill-rule="evenodd">
        <g id="Create-company-profile" transform="translate(-36.000000, -342.000000)">
            <g id="document" transform="translate(32.000000, 339.000000)">
                <g id="Document" transform="translate(4.363636, 3.636364)">
                    <path d="M14.4994503,0.162367865 L5.1632981,0.162367865 C4.74320297,0.163799904 4.3535111,0.381659142 4.13226216,0.738773784 L0.884904863,3.98613108 C0.516631028,4.20641629 0.291485558,4.6042761 0.292262156,5.03340381 L0.292262156,15.9932347 C0.292262156,16.6657844 0.837471425,17.2109937 1.51002114,17.2109937 L14.4994503,17.2109937 C15.172,17.2109937 15.7172093,16.6657844 15.7172093,15.9932347 L15.7172093,1.38012685 C15.7172093,0.707577133 15.172,0.162367865 14.4994503,0.162367865 Z M3.94553911,2.64659619 L3.94553911,3.81564482 L2.77649049,3.81564482 L3.94553911,2.64659619 Z M14.4994503,15.9932347 L1.51002114,15.9932347 L1.51002114,5.07399577 L1.53437632,5.07399577 L1.5587315,5.04964059 L5.1632981,5.04964059 L5.1632981,1.445074 L5.18765328,1.42071882 L5.18765328,1.39636364 L14.4832135,1.39636364 L14.4994503,15.9932347 Z" id="Shape" fill="#D6DAEA"></path>
                    <path d="M12.0639323,9.49852008 L3.94553911,9.49852008 C3.60926425,9.49852008 3.33665962,9.77112472 3.33665962,10.1073996 C3.33665962,10.4436744 3.60926425,10.7162791 3.94553911,10.7162791 L12.0639323,10.7162791 C12.4002072,10.7162791 12.6728118,10.4436744 12.6728118,10.1073996 C12.6728118,9.77112472 12.4002072,9.49852008 12.0639323,9.49852008 Z" id="Shape" fill="#D6DAEA"></path>
                    <path d="M10.8461734,12.3399577 L3.94553911,12.3399577 C3.60926425,12.3399577 3.33665962,12.6125624 3.33665962,12.9488372 C3.33665962,13.2851121 3.60926425,13.5577167 3.94553911,13.5577167 L10.8461734,13.5577167 C11.1824482,13.5577167 11.4550529,13.2851121 11.4550529,12.9488372 C11.4550529,12.6125624 11.1824482,12.3399577 10.8461734,12.3399577 Z" id="Shape" fill="#D6DAEA"></path>
                    <path d="M9.22249471,7.87484144 L11.6580127,7.87484144 C12.3305624,7.87484144 12.8757717,7.32963217 12.8757717,6.65708245 L12.8757717,4.22156448 C12.8757717,3.54901477 12.3305624,3.0038055 11.6580127,3.0038055 L9.22249471,3.0038055 C8.549945,3.0038055 8.00473573,3.54901477 8.00473573,4.22156448 L8.00473573,6.65708245 C8.00473573,7.32963217 8.549945,7.87484144 9.22249471,7.87484144 Z M9.22249471,4.22156448 L11.6580127,4.22156448 L11.6580127,6.65708245 L9.22249471,6.65708245 L9.22249471,4.22156448 Z" id="Shape" fill="#00A6A6"></path>
                </g>
                <rect id="Rectangle" x="0" y="0" width="24" height="24"></rect>
            </g>
        </g>
    </g>
</svg>