<?xml version="1.0" encoding="UTF-8"?>
<svg width="20px" height="18px" viewBox="0 0 20 18" version="1.1" xmlns="http://www.w3.org/2000/svg" xmlns:xlink="http://www.w3.org/1999/xlink">
    <!-- Generator: sketchtool 57.1 (101010) - https://sketch.com -->
    <title>EDBE3D16-D409-4654-BA69-8772FC9ADAF3</title>
    <desc>Created with sketchtool.</desc>
    <g id="Page-1" stroke="none" stroke-width="1" fill="none" fill-rule="evenodd">
        <g id="Create-company-profile" transform="translate(-34.000000, -180.000000)">
            <g id="Dashboard" transform="translate(32.000000, 177.000000)">
                <rect id="Rectangle-Copy-9" x="0" y="0" width="24" height="24"></rect>
                <g id="Chart-7" transform="translate(2.181818, 3.636364)">
                    <path d="M18.6718881,15.8433566 L0.76979021,15.8433566 C0.399025622,15.8433566 0.0984615385,16.1439207 0.0984615385,16.5146853 C0.0984615385,16.8854499 0.399025622,17.186014 0.76979021,17.186014 L18.6718881,17.186014 C19.0426527,17.186014 19.3432168,16.8854499 19.3432168,16.5146853 C19.3432168,16.1439207 19.0426527,15.8433566 18.6718881,15.8433566 Z" id="Shape" fill="#D6DAEA"></path>
                    <path d="M8.82573427,14.9482517 L10.6159441,14.9482517 C11.3574732,14.9482517 11.9586014,14.3471236 11.9586014,13.6055944 L11.9586014,8.68251748 C11.9586014,7.94098831 11.3574732,7.33986014 10.6159441,7.33986014 L8.82573427,7.33986014 C8.08420509,7.33986014 7.48307692,7.94098831 7.48307692,8.68251748 L7.48307692,13.6055944 C7.48307692,13.9616893 7.62453506,14.3031994 7.87633215,14.5549965 C8.12812925,14.8067936 8.4696394,14.9482517 8.82573427,14.9482517 Z M8.82573427,8.68251748 L10.6159441,8.68251748 L10.6159441,13.6055944 L8.82573427,13.6055944 L8.82573427,8.68251748 Z" id="Shape" fill="#D6DAEA"></path>
                    <path d="M14.1963636,14.9482517 L15.9865734,14.9482517 C16.7281026,14.9482517 17.3292308,14.3471236 17.3292308,13.6055944 L17.3292308,5.54965035 C17.3292308,4.80812118 16.7281026,4.20699301 15.9865734,4.20699301 L14.1963636,4.20699301 C13.4548345,4.20699301 12.8537063,4.80812118 12.8537063,5.54965035 L12.8537063,13.6055944 C12.8537063,14.3471236 13.4548345,14.9482517 14.1963636,14.9482517 Z M14.1963636,5.54965035 L15.9865734,5.54965035 L15.9865734,13.6055944 L14.1963636,13.6055944 L14.1963636,5.54965035 Z" id="Shape" fill="#00A6A6"></path>
                    <path d="M3.4551049,14.9482517 L5.24531469,14.9482517 C5.98684386,14.9482517 6.58797203,14.3471236 6.58797203,13.6055944 L6.58797203,1.52167832 C6.58797203,0.780149147 5.98684386,0.179020979 5.24531469,0.179020979 L3.4551049,0.179020979 C2.71357572,0.179020979 2.11244755,0.780149147 2.11244755,1.52167832 L2.11244755,13.6055944 C2.11244755,14.3471236 2.71357572,14.9482517 3.4551049,14.9482517 Z M3.4551049,1.52167832 L5.24531469,1.52167832 L5.24531469,13.6055944 L3.4551049,13.6055944 L3.4551049,1.52167832 Z" id="Shape" fill="#D6DAEA"></path>
                </g>
            </g>
        </g>
    </g>
</svg>