<?xml version="1.0" encoding="UTF-8"?>
<svg width="21px" height="19px" viewBox="0 0 21 19" version="1.1" xmlns="http://www.w3.org/2000/svg" xmlns:xlink="http://www.w3.org/1999/xlink">
    <!-- Generator: sketchtool 57.1 (101010) - https://sketch.com -->
    <title>F77648CD-01D9-4AF2-9990-C379EEF8636F</title>
    <desc>Created with sketchtool.</desc>
    <g id="Page-1" stroke="none" stroke-width="1" fill="none" fill-rule="evenodd">
        <g id="Create-company-profile" transform="translate(-34.000000, -513.000000)">
            <g id="Group-17" transform="translate(32.000000, 510.000000)">
                <g id="Cloud_upload" transform="translate(2.181818, 3.636364)">
                    <path d="M16.2327273,5.58545455 C15.6777622,3.25370629 13.994965,0.179020979 10.1683916,0.179020979 C7.2413986,0.179020979 5.80475524,1.49482517 5.11552448,2.60027972 C4.8505003,3.02644753 4.64991814,3.48944546 4.52027972,3.97426573 C2.68531469,4.4979021 0.322237762,5.98377622 0.322237762,9.13006993 C0.262978379,11.4252991 1.67769657,13.5014206 3.83552448,14.2858741 C4.85324537,14.698736 5.9375345,14.9231763 7.03552448,14.9482517 L7.48307692,14.9482517 L7.48307692,13.6055944 L7.03552448,13.6055944 C7.03552448,13.6055944 1.6648951,13.6055944 1.6648951,9.13006993 C1.6648951,5.54965035 5.69286713,5.1020979 5.69286713,5.1020979 C5.69286713,5.1020979 5.69286713,1.52167832 10.1683916,1.52167832 C14.6439161,1.52167832 15.0914685,6.89230769 15.0914685,6.89230769 C15.2151947,6.88538621 15.3392109,6.88538621 15.4629371,6.89230769 C16.358042,6.89230769 18.6718881,7.17874126 18.6718881,10.0251748 C18.6718881,13.6055944 13.3012587,13.6055944 13.3012587,13.6055944 L12.4061538,13.6055944 L12.4061538,14.9482517 L13.3012587,14.9482517 C15.6240559,14.9482517 20.0145455,13.9188811 20.0145455,10.0251748 C20.0145455,7.10713287 18.1169231,5.84503497 16.2327273,5.58545455 Z" id="Shape" fill="#D6DAEA"></path>
                    <path d="M12.4732867,9.02713287 C12.7295286,9.25256111 13.1141255,9.24986015 13.3671759,9.02085524 C13.6202263,8.79185032 13.661187,8.40943131 13.4623776,8.13202797 L10.7770629,5.22293706 C10.3739977,4.98477383 9.87327504,4.98477383 9.47020979,5.22293706 L6.56111888,8.19020979 C6.38346637,8.35934137 6.31219876,8.61189899 6.37523361,8.8489486 C6.43826846,9.0859982 6.62556987,9.26979865 6.86376651,9.32835004 C7.10196316,9.38690144 7.35313128,9.3108817 7.51888112,9.13006993 L9.27776224,7.33986014 L9.27776224,16.7384615 C9.27776224,17.1092261 9.57832632,17.4097902 9.94909091,17.4097902 C10.3198555,17.4097902 10.6204196,17.1092261 10.6204196,16.7384615 L10.6204196,7.01314685 L12.4732867,9.02713287 Z" id="Shape" fill="#00A6A6"></path>
                </g>
                <rect id="Rectangle-Copy-2" x="0" y="0" width="24" height="24"></rect>
            </g>
        </g>
    </g>
</svg>