<?xml version="1.0" encoding="UTF-8"?>
<svg width="22px" height="16px" viewBox="0 0 22 16" version="1.1" xmlns="http://www.w3.org/2000/svg" xmlns:xlink="http://www.w3.org/1999/xlink">
    <!-- Generator: sketchtool 57.1 (101010) - https://sketch.com -->
    <title>CE25E748-F50F-4181-8B51-F43A279BD899</title>
    <desc>Created with sketchtool.</desc>
    <g id="Page-1" stroke="none" stroke-width="1" fill="none" fill-rule="evenodd">
        <g id="Create-company-profile" transform="translate(-33.000000, -247.000000)">
            <g id="Incidence" transform="translate(32.000000, 243.000000)">
                <g id="Laptop" transform="translate(1.454545, 4.363636)">
                    <path d="M2.912,12.9309091 L18.1847273,12.9309091 C19.0282167,12.9309091 19.712,12.2471258 19.712,11.4036364 L19.712,1.73090909 C19.712,0.887419655 19.0282167,0.203636364 18.1847273,0.203636364 L2.912,0.203636364 C2.06851056,0.203636364 1.38472727,0.887419655 1.38472727,1.73090909 L1.38472727,11.4036364 C1.38472727,12.2471258 2.06851056,12.9309091 2.912,12.9309091 Z M2.912,1.73090909 L18.1847273,1.73090909 L18.1847273,11.4036364 L2.912,11.4036364 L2.912,1.73090909 Z" id="Shape" fill="#D6DAEA"></path>
                    <rect id="Rectangle-path" fill="#00A6A6" x="0.366545455" y="13.44" width="20.3636364" height="1.52727273"></rect>
                </g>
                <rect id="Rectangle-Copy-10" x="0" y="0" width="24" height="24"></rect>
            </g>
        </g>
    </g>
</svg>