<?xml version="1.0" encoding="UTF-8"?>
<svg width="22px" height="22px" viewBox="0 0 22 22" version="1.1" xmlns="http://www.w3.org/2000/svg" xmlns:xlink="http://www.w3.org/1999/xlink">
    <!-- Generator: sketchtool 57.1 (101010) - https://sketch.com -->
    <title>62F8C9E9-22A8-49E4-BE44-BC70FBA189D3</title>
    <desc>Created with sketchtool.</desc>
    <g id="Page-1" stroke="none" stroke-width="1" fill="none" fill-rule="evenodd">
        <g id="Login" transform="translate(-1011.000000, -350.000000)" fill="#187DB4">
            <g id="Group-2" transform="translate(805.000000, 208.000000)">
                <path d="M222.5,158.489688 L220.220938,158.489688 L220.220938,154.922937 C220.220938,154.0725 220.205813,152.978688 219.036375,152.978688 C217.850437,152.978688 217.669625,153.905437 217.669625,154.862437 L217.669625,158.489688 L215.392625,158.489688 L215.392625,151.155437 L217.5775,151.155437 L217.5775,152.1585 L217.609125,152.1585 C217.913,151.581687 218.656875,150.97325 219.765813,150.97325 C222.07375,150.97325 222.5,152.491938 222.5,154.467125 L222.5,158.489688 Z M212.82275,150.15375 C212.090563,150.15375 211.5,149.561125 211.5,148.831687 C211.5,148.10225 212.090563,147.509625 212.82275,147.509625 C213.5515,147.509625 214.143438,148.10225 214.143438,148.831687 C214.143438,149.561125 213.5515,150.15375 212.82275,150.15375 L212.82275,150.15375 Z M213.962625,158.489688 L211.680813,158.489688 L211.680813,151.155438 L213.962625,151.155438 L213.962625,158.489688 Z M217,142 C210.924563,142 206,146.924562 206,153 C206,159.07475 210.924563,164 217,164 C223.075437,164 228,159.07475 228,153 C228,146.924562 223.075437,142 217,142 L217,142 Z" id="Fill-209"></path>
            </g>
        </g>
    </g>
</svg>