<?xml version="1.0" encoding="UTF-8"?>
<svg width="20px" height="18px" viewBox="0 0 20 18" version="1.1" xmlns="http://www.w3.org/2000/svg" xmlns:xlink="http://www.w3.org/1999/xlink">
    <!-- Generator: sketchtool 57.1 (101010) - https://sketch.com -->
    <title>E7941C31-4F67-442A-8633-55284EC5246D</title>
    <desc>Created with sketchtool.</desc>
    <g id="Page-1" stroke="none" stroke-width="1" fill="none" fill-rule="evenodd">
        <g id="Create-company-profile" transform="translate(-34.000000, -390.000000)">
            <g id="Group-11" transform="translate(32.000000, 387.000000)">
                <g id="Dialog" transform="translate(2.181818, 3.636364)">
                    <path d="M18.2050909,5.41090909 L14.2778182,5.41090909 L14.2778182,1.48363636 C14.2778182,0.760645418 13.6917182,0.174545455 12.9687273,0.174545455 L1.62327273,0.174545455 C0.900281782,0.174545455 0.314181818,0.760645418 0.314181818,1.48363636 L0.314181818,8.46545455 C0.314181818,9.18844549 0.900281782,9.77454545 1.62327273,9.77454545 L1.872,9.77454545 L1.71927273,10.1629091 C1.513024,10.6771212 1.6528113,11.2654873 2.06830344,11.6319827 C2.48379558,11.9984781 3.08500874,12.0637304 3.56945455,11.7949091 L5.55054545,10.6952727 L5.55054545,13.7061818 C5.55054545,14.4291728 6.13664542,15.0152727 6.85963636,15.0152727 L12.6283636,15.0152727 L16.2589091,17.0312727 C16.7433549,17.300094 17.3445681,17.2348417 17.7600602,16.8683463 C18.1755523,16.5018509 18.3153396,15.9134848 18.1090909,15.3992727 L17.9563636,15.0109091 L18.2050909,15.0109091 C18.9280819,15.0109091 19.5141818,14.4248091 19.5141818,13.7018182 L19.5141818,6.72 C19.5141818,5.99700905 18.9280819,5.41090909 18.2050909,5.41090909 Z M5.55054545,6.72 L5.55054545,9.19418182 L2.93236364,10.6472727 L3.80509091,8.46545455 L1.62327273,8.46545455 L1.62327273,1.48363636 L12.9687273,1.48363636 L12.9687273,5.41090909 L6.85963636,5.41090909 C6.13664542,5.41090909 5.55054545,5.99700905 5.55054545,6.72 Z M18.2050909,13.7018182 L16.0232727,13.7018182 L16.896,15.8836364 L12.9687273,13.7018182 L6.85963636,13.7018182 L6.85963636,6.72 L18.2050909,6.72 L18.2050909,13.7018182 Z" id="Shape" fill="#D6DAEA"></path>
                    <path d="M8.60509091,9.33818182 L16.4596364,9.33818182 C16.8211318,9.33818182 17.1141818,9.04513184 17.1141818,8.68363636 C17.1141818,8.32214089 16.8211318,8.02909091 16.4596364,8.02909091 L8.60509091,8.02909091 C8.24359544,8.02909091 7.95054545,8.32214089 7.95054545,8.68363636 C7.95054545,9.04513184 8.24359544,9.33818182 8.60509091,9.33818182 L8.60509091,9.33818182 Z" id="Shape" fill="#00A6A6"></path>
                    <path d="M8.60509091,11.9563636 L16.4596364,11.9563636 C16.8211318,11.9563636 17.1141818,11.6633137 17.1141818,11.3018182 C17.1141818,10.9403227 16.8211318,10.6472727 16.4596364,10.6472727 L8.60509091,10.6472727 C8.24359544,10.6472727 7.95054545,10.9403227 7.95054545,11.3018182 C7.95054545,11.6633137 8.24359544,11.9563636 8.60509091,11.9563636 L8.60509091,11.9563636 Z" id="Shape" fill="#00A6A6"></path>
                </g>
                <rect id="Rectangle-Copy-13" x="0" y="0" width="24" height="24"></rect>
            </g>
        </g>
    </g>
</svg>