<?xml version="1.0" encoding="UTF-8"?>
<svg width="18px" height="18px" viewBox="0 0 18 18" version="1.1" xmlns="http://www.w3.org/2000/svg" xmlns:xlink="http://www.w3.org/1999/xlink">
    <!-- Generator: sketchtool 57.1 (101010) - https://sketch.com -->
    <title>7E708DC0-0733-45BD-BD26-03936069D2A0</title>
    <desc>Created with sketchtool.</desc>
    <g id="Page-1" stroke="none" stroke-width="1" fill="none" fill-rule="evenodd">
        <g id="Create-company-profile" transform="translate(-35.000000, -294.000000)">
            <g id="Group-16" transform="translate(32.000000, 291.000000)">
                <g id="User-2" transform="translate(3.636364, 3.636364)" fill="#D6DAEA">
                    <path d="M8.81260606,0.252121212 C4.0997762,0.252121212 0.279272727,4.07262468 0.279272727,8.78545455 C0.279272727,13.4982844 4.0997762,17.3187879 8.81260606,17.3187879 C13.5254359,17.3187879 17.3459394,13.4982844 17.3459394,8.78545455 C17.3459394,4.07262468 13.5254359,0.252121212 8.81260606,0.252121212 Z M1.44290909,8.78545455 C1.44267345,5.55774569 3.54281448,2.70545644 6.62505046,1.74737192 C9.70728643,0.789287407 13.0543256,1.94837112 14.8839388,4.60743492 C16.7135519,7.26649872 16.5999551,10.8067306 14.6036364,13.3430303 C13.7145118,12.018724 12.4244604,11.0141423 10.9226667,10.4766061 C11.5716942,9.78187762 11.92742,8.86338259 11.9156364,7.91272727 C11.9156364,5.97333333 10.5231515,4.42181818 8.81260606,4.42181818 C7.10206061,4.42181818 5.70957576,5.97333333 5.70957576,7.91272727 C5.69993304,8.8973094 6.08556699,9.84462757 6.78012121,10.5425455 C5.26766973,11.0854661 3.99196637,12.1389502 3.17284848,13.5214545 C2.05467011,12.1968135 1.44178841,10.5189468 1.44290909,8.78545455 L1.44290909,8.78545455 Z M9.00654545,10.1430303 C8.79405119,10.1439032 8.58173798,10.1555545 8.37042424,10.1779394 C7.42645968,9.83561893 6.81819074,8.91533639 6.87321212,7.91272727 C6.87321212,6.62884848 7.74206061,5.58545455 8.81260606,5.58545455 C9.88315152,5.58545455 10.752,6.62884848 10.752,7.91272727 C10.7997947,8.88712616 10.2277046,9.78568075 9.32460606,10.1546667 C9.21987879,10.1507879 9.11515152,10.1430303 9.00654545,10.1430303 Z M4.03393939,14.409697 C4.87698569,12.7638252 6.46911725,11.6319644 8.30060606,11.3764848 C8.67819972,11.4502238 9.0673133,11.4409592 9.4409697,11.3493333 C11.2510206,11.5937534 12.8491521,12.6544095 13.7774545,14.2273939 C11.0420684,16.7521847 6.85011223,16.8305235 4.02230303,14.409697 L4.03393939,14.409697 Z" id="Shape"></path>
                </g>
                <rect id="Rectangle" x="0" y="0" width="24" height="24"></rect>
            </g>
        </g>
    </g>
</svg>