<?xml version="1.0" encoding="UTF-8"?>
<svg width="150px" height="150px" viewBox="0 0 150 150" version="1.1" xmlns="http://www.w3.org/2000/svg" xmlns:xlink="http://www.w3.org/1999/xlink">
    <!-- Generator: sketchtool 57.1 (101010) - https://sketch.com -->
    <title>7AF2E1D3-1AE4-4C8A-85E0-BCFA0F9D4FE5</title>
    <desc>Created with sketchtool.</desc>
    <g id="Page-1" stroke="none" stroke-width="1" fill="none" fill-rule="evenodd">
        <g id="Verification" transform="translate(-1051.000000, -262.000000)" fill-rule="nonzero">
            <g id="iconfinder_Iconos-03_1572904" transform="translate(1051.000000, 262.000000)">
                <g id="Group">
                    <path d="M122.678571,46.0714286 L149.693878,76.8367347 C149.693878,76.3010204 149.693878,75.7653061 149.693878,75.2295918 C149.693878,33.9795918 116.25,0.535714286 75,0.535714286 C33.75,0.535714286 0.306122449,33.9795918 0.306122449,75.2295918 C0.306122449,113.188776 28.622449,144.566327 65.3571429,149.311224 L28.6989796,107.52551 L122.678571,46.0714286 Z" id="Path" fill="#63A460"></path>
                    <path d="M149.693878,76.8367347 L122.678571,46.0714286 L28.6989796,107.52551 L65.3571429,149.311224 C68.494898,149.693878 71.7091837,149.923469 75,149.923469 C115.714286,149.923469 148.77551,117.321429 149.693878,76.8367347 Z" id="Path" fill="#63A460"></path>
                    <path d="M149.693878,76.8367347 L122.678571,46.0714286 L28.6989796,107.52551 L65.3571429,149.311224 C68.494898,149.693878 71.7091837,149.923469 75,149.923469 C115.714286,149.923469 148.77551,117.321429 149.693878,76.8367347 Z" id="Path" fill="#4E894A" opacity="0.55"></path>
                </g>
                <g id="Group" transform="translate(28.316327, 45.918367)">
                    <rect id="Rectangle" fill="#D7D7D7" x="0.382653061" y="0.153061224" width="93.9795918" height="61.4540816"></rect>
                    <polygon id="Path" fill="#636363" opacity="0.1" points="0.382653061 61.6071429 47.372449 20.0510204 94.3622449 61.6071429"></polygon>
                    <polygon id="Path" fill="#EFEFEE" points="0.382653061 0.153061224 47.372449 47.9846939 94.3622449 0.153061224"></polygon>
                </g>
                <circle id="Oval" fill="#63A460" cx="122.755102" cy="81.9642857" r="9.18367347"></circle>
                <polygon id="Path" fill="#FFFFFF" points="120.229592 86.9387755 117.780612 83.1887755 119.617347 82.0408163 120.535714 83.494898 126.045918 77.9081633 127.576531 79.3622449"></polygon>
            </g>
        </g>
    </g>
</svg>